<svg width="30" height="33" viewBox="0 0 30 33" fill="none" xmlns="http://www.w3.org/2000/svg">
<path d="M24.0565 4.03955C23.9276 4.03955 23.7987 4.00732 23.6859 3.94285C20.5913 2.34724 17.9159 1.67032 14.7086 1.67032C11.5173 1.67032 8.4873 2.42783 5.73125 3.94285C5.34443 4.15237 4.86092 4.00732 4.63527 3.6205C4.53476 3.43201 4.51221 3.21159 4.57249 3.00665C4.63277 2.8017 4.77105 2.62859 4.95762 2.52453C7.95543 0.89669 11.2433 0.0585938 14.7086 0.0585938C18.1415 0.0585938 21.1393 0.816104 24.4272 2.50841C24.8302 2.71794 24.9752 3.20146 24.7657 3.58827C24.702 3.72263 24.6016 3.83626 24.4762 3.9161C24.3507 3.99593 24.2053 4.03873 24.0565 4.03955ZM0.992778 12.5011C0.844212 12.5025 0.698165 12.4627 0.570838 12.3861C0.443511 12.3096 0.33988 12.1992 0.271441 12.0674C0.203001 11.9355 0.172428 11.7872 0.183113 11.6391C0.193797 11.4909 0.245322 11.3485 0.331971 11.2278C1.92758 8.97143 3.95835 7.19853 6.37594 5.9575C11.4368 3.34651 17.9159 3.33039 22.9928 5.94139C25.4104 7.18241 27.4412 8.93919 29.0368 11.1795C29.0986 11.2661 29.1427 11.3641 29.1664 11.4678C29.1902 11.5716 29.1932 11.679 29.1752 11.7839C29.1572 11.8888 29.1186 11.9891 29.0617 12.079C29.0047 12.1689 28.9305 12.2466 28.8434 12.3077C28.4727 12.5656 27.973 12.485 27.7152 12.1143C26.3037 10.1164 24.4289 8.49043 22.2514 7.37582C17.6258 5.00659 11.7107 5.00659 7.10121 7.39194C4.90927 8.52015 3.0719 10.1319 1.62135 12.1626C1.49241 12.3883 1.25065 12.5011 0.992778 12.5011ZM11.0661 31.9546C10.9604 31.9559 10.8556 31.9351 10.7584 31.8934C10.6613 31.8518 10.5739 31.7903 10.5019 31.7129C9.09975 30.3107 8.34224 29.4081 7.26238 27.4579C6.15029 25.4755 5.57008 23.0579 5.57008 20.463C5.57008 15.6762 9.66385 11.7758 14.6924 11.7758C19.721 11.7758 23.8148 15.6762 23.8148 20.463C23.8148 20.9143 23.4602 21.2689 23.0089 21.2689C22.5576 21.2689 22.2031 20.9143 22.2031 20.463C22.2031 16.5626 18.8346 13.3876 14.6924 13.3876C10.5503 13.3876 7.1818 16.5626 7.1818 20.463C7.1818 22.7839 7.69755 24.9275 8.6807 26.6682C9.71221 28.5216 10.4214 29.3114 11.6624 30.5685C11.9686 30.8909 11.9686 31.3905 11.6624 31.7129C11.4851 31.874 11.2756 31.9546 11.0661 31.9546ZM22.6221 28.9729C20.7042 28.9729 19.0119 28.4894 17.6258 27.5385C15.2243 25.9106 13.7899 23.2674 13.7899 20.463C13.7899 20.0117 14.1444 19.6572 14.5957 19.6572C15.047 19.6572 15.4016 20.0117 15.4016 20.463C15.4016 22.7356 16.562 24.8791 18.5283 26.2008C19.6727 26.9744 21.0104 27.3451 22.6221 27.3451C23.0089 27.3451 23.6536 27.2967 24.2983 27.1839C24.7335 27.1033 25.1525 27.3934 25.2331 27.8447C25.3137 28.2799 25.0236 28.6989 24.5723 28.7795C23.6536 28.9568 22.8478 28.9729 22.6221 28.9729ZM19.3825 32.2931C19.3181 32.2931 19.2375 32.277 19.173 32.2608C16.6104 31.5517 14.9342 30.6008 13.1774 28.8762C12.0642 27.777 11.1814 26.4667 10.5809 25.0221C9.98032 23.5774 9.67405 22.0275 9.67997 20.463C9.67997 17.852 11.9042 15.7246 14.6441 15.7246C17.384 15.7246 19.6082 17.852 19.6082 20.463C19.6082 22.1876 21.1071 23.5898 22.9606 23.5898C24.8141 23.5898 26.313 22.1876 26.313 20.463C26.313 14.3868 21.0749 9.45495 14.628 9.45495C10.0507 9.45495 5.86018 12.0015 3.97447 15.9502C3.3459 17.2557 3.02355 18.7868 3.02355 20.463C3.02355 21.7202 3.13637 23.7026 4.10341 26.2813C4.26458 26.7004 4.05505 27.1678 3.63601 27.3128C3.21696 27.474 2.74956 27.2484 2.6045 26.8454C1.82788 24.8071 1.42918 22.6443 1.42794 20.463C1.42794 18.529 1.79864 16.7722 2.52392 15.241C4.66751 10.7443 9.4221 7.8271 14.628 7.8271C21.9613 7.8271 27.9247 13.4843 27.9247 20.4469C27.9247 23.0579 25.7005 25.1854 22.9606 25.1854C20.2206 25.1854 17.9965 23.0579 17.9965 20.4469C17.9965 18.7224 16.4976 17.3202 14.6441 17.3202C12.7906 17.3202 11.2917 18.7224 11.2917 20.4469C11.2917 23.203 12.3554 25.7817 14.3056 27.7158C15.8368 29.2308 17.3034 30.0689 19.576 30.6975C20.0111 30.8103 20.2529 31.2616 20.1401 31.6806C20.0595 32.0513 19.721 32.2931 19.3825 32.2931Z" fill="#252525"/>
</svg>
