<svg width="16" height="15" viewBox="0 0 16 15" fill="none" xmlns="http://www.w3.org/2000/svg">
<path d="M2 12.9681H5V7.9482H11V12.9681H14V5.43824L8 1.67331L2 5.43824V12.9681ZM2 14.6414C1.45 14.6414 0.979333 14.4777 0.588 14.1503C0.196 13.8223 0 13.4283 0 12.9681V5.43824C0 5.1733 0.0709998 4.92231 0.213 4.68526C0.354333 4.44821 0.55 4.25299 0.8 4.0996L6.8 0.334661C6.98333 0.223108 7.175 0.139442 7.375 0.0836652C7.575 0.0278884 7.78333 0 8 0C8.21667 0 8.425 0.0278884 8.625 0.0836652C8.825 0.139442 9.01667 0.223108 9.2 0.334661L15.2 4.0996C15.45 4.25299 15.646 4.44821 15.788 4.68526C15.9293 4.92231 16 5.1733 16 5.43824V12.9681C16 13.4283 15.8043 13.8223 15.413 14.1503C15.021 14.4777 14.55 14.6414 14 14.6414H9V9.62151H7V14.6414H2Z" fill="#D3D3D3"/>
</svg>
