<svg width="137" height="143" viewBox="0 0 137 143" fill="none" xmlns="http://www.w3.org/2000/svg">
<rect x="0.272736" y="0.611328" width="136.364" height="142.075" rx="20" fill="white" fill-opacity="0.1"/>
<path d="M9.36365 20.344C9.36365 17.6227 10.4013 15.0127 12.2482 13.0884C14.0952 11.1641 16.6002 10.083 19.2121 10.083H38.9091V20.344H19.2121V40.8661H9.36365V20.344ZM127.545 122.954C127.545 125.675 126.508 128.285 124.661 130.21C122.814 132.134 120.309 133.215 117.697 133.215H98V122.954H117.697V102.432H127.545V122.954ZM19.2121 133.215C16.6002 133.215 14.0952 132.134 12.2482 130.21C10.4013 128.285 9.36365 125.675 9.36365 122.954V102.432H19.2121V122.954H38.9091V133.215H19.2121ZM117.697 10.083C120.309 10.083 122.814 11.1641 124.661 13.0884C126.508 15.0127 127.545 17.6227 127.545 20.344V40.8661H117.697V20.344H98V10.083H117.697Z" fill="#4E4E4E"/>
<path d="M90.4621 41.9316C90.1591 41.9316 89.8561 41.8527 89.5909 41.6948C82.3182 37.7877 76.0303 36.1302 68.4924 36.1302C60.9924 36.1302 53.8712 37.9851 47.3939 41.6948C46.4848 42.2079 45.3485 41.8527 44.8182 40.9055C44.5819 40.4439 44.5289 39.9042 44.6706 39.4024C44.8123 38.9006 45.1373 38.4767 45.5757 38.2219C52.6212 34.2359 60.3485 32.1837 68.4924 32.1837C76.5606 32.1837 83.6061 34.0385 91.3333 38.1824C92.2803 38.6954 92.6212 39.8794 92.1288 40.8266C91.979 41.1556 91.7431 41.4338 91.4483 41.6293C91.1534 41.8248 90.8116 41.9296 90.4621 41.9316ZM36.2576 62.6509C35.9084 62.6543 35.5652 62.5569 35.2659 62.3694C34.9667 62.1819 34.7231 61.9118 34.5623 61.5889C34.4014 61.266 34.3296 60.9029 34.3547 60.5401C34.3798 60.1772 34.5009 59.8287 34.7045 59.5332C38.4545 54.008 43.2273 49.6668 48.9091 46.628C60.803 40.2346 76.0303 40.1951 87.9621 46.5885C93.6439 49.6274 98.4167 53.9291 102.167 59.4148C102.312 59.6269 102.416 59.8669 102.471 60.1209C102.527 60.3749 102.534 60.6379 102.492 60.8948C102.45 61.1516 102.359 61.3972 102.225 61.6173C102.091 61.8375 101.917 62.0278 101.712 62.1774C100.841 62.8088 99.6667 62.6115 99.0606 61.7038C95.7434 56.8116 91.3373 52.8302 86.2197 50.1009C75.3485 44.2995 61.447 44.2995 50.6136 50.1404C45.4621 52.903 41.1439 56.8495 37.7348 61.8222C37.4318 62.3747 36.8636 62.6509 36.2576 62.6509ZM59.9318 110.286C59.6834 110.289 59.4371 110.238 59.2088 110.136C58.9805 110.034 58.7752 109.883 58.606 109.694C55.3106 106.26 53.5303 104.05 50.9924 99.2748C48.3788 94.4206 47.0151 88.5008 47.0151 82.1469C47.0151 70.4256 56.6364 60.875 68.4545 60.875C80.2727 60.875 89.8939 70.4256 89.8939 82.1469C89.8939 83.2519 89.0606 84.1201 88 84.1201C86.9394 84.1201 86.1061 83.2519 86.1061 82.1469C86.1061 72.5962 78.1894 64.8215 68.4545 64.8215C58.7197 64.8215 50.803 72.5962 50.803 82.1469C50.803 87.8299 52.0151 93.0788 54.3257 97.341C56.75 101.88 58.4167 103.813 61.3333 106.892C62.053 107.681 62.053 108.904 61.3333 109.694C60.9167 110.088 60.4242 110.286 59.9318 110.286ZM87.0909 102.985C82.5833 102.985 78.606 101.801 75.3485 99.4722C69.7045 95.4862 66.3333 89.0138 66.3333 82.1469C66.3333 81.0418 67.1667 80.1736 68.2273 80.1736C69.2879 80.1736 70.1212 81.0418 70.1212 82.1469C70.1212 87.7115 72.8485 92.9604 77.4697 96.1965C80.1591 98.0909 83.303 98.9986 87.0909 98.9986C88 98.9986 89.5151 98.8802 91.0303 98.6039C92.053 98.4066 93.0379 99.117 93.2273 100.222C93.4167 101.288 92.7348 102.314 91.6742 102.511C89.5151 102.945 87.6212 102.985 87.0909 102.985ZM79.4773 111.114C79.3257 111.114 79.1364 111.075 78.9848 111.036C72.9621 109.299 69.0227 106.971 64.8939 102.748C62.2776 100.056 60.2029 96.8477 58.7915 93.3103C57.3801 89.7729 56.6603 85.9777 56.6742 82.1469C56.6742 75.7535 61.9015 70.544 68.3409 70.544C74.7803 70.544 80.0076 75.7535 80.0076 82.1469C80.0076 86.3697 83.5303 89.8031 87.8864 89.8031C92.2424 89.8031 95.7651 86.3697 95.7651 82.1469C95.7651 67.2684 83.4545 55.192 68.303 55.192C57.5454 55.192 47.697 61.4275 43.2651 71.0965C41.7879 74.2932 41.0303 78.0425 41.0303 82.1469C41.0303 85.2252 41.2954 90.0794 43.5682 96.3939C43.947 97.42 43.4545 98.5645 42.4697 98.9197C41.4848 99.3143 40.3864 98.7618 40.0454 97.7752C38.2202 92.784 37.2832 87.488 37.2803 82.1469C37.2803 77.411 38.1515 73.1093 39.856 69.3601C44.8939 58.3492 56.0682 51.206 68.303 51.206C85.5379 51.206 99.553 65.0583 99.553 82.1074C99.553 88.5008 94.3257 93.7102 87.8864 93.7102C81.447 93.7102 76.2197 88.5008 76.2197 82.1074C76.2197 77.8846 72.697 74.4511 68.3409 74.4511C63.9848 74.4511 60.4621 77.8846 60.4621 82.1074C60.4621 88.856 62.9621 95.1704 67.5454 99.9063C71.1439 103.616 74.5909 105.668 79.9318 107.207C80.9545 107.484 81.5227 108.589 81.2576 109.615C81.0682 110.522 80.2727 111.114 79.4773 111.114Z" fill="#4E4E4E"/>
</svg>
