<svg width="34" height="34" viewBox="0 0 34 34" fill="none" xmlns="http://www.w3.org/2000/svg">
<path d="M5.66667 5.65865H14.1667V14.1466H5.66667V5.65865ZM28.3333 5.65865V14.1466H19.8333V5.65865H28.3333ZM19.8333 21.2199H22.6667V18.3906H19.8333V15.5613H22.6667V18.3906H25.5V15.5613H28.3333V18.3906H25.5V21.2199H28.3333V25.4639H25.5V28.2933H22.6667V25.4639H18.4167V28.2933H15.5833V22.6346H19.8333V21.2199ZM22.6667 21.2199V25.4639H25.5V21.2199H22.6667ZM5.66667 28.2933V19.8053H14.1667V28.2933H5.66667ZM8.5 8.48798V11.3173H11.3333V8.48798H8.5ZM22.6667 8.48798V11.3173H25.5V8.48798H22.6667ZM8.5 22.6346V25.4639H11.3333V22.6346H8.5ZM5.66667 15.5613H8.5V18.3906H5.66667V15.5613ZM12.75 15.5613H18.4167V21.2199H15.5833V18.3906H12.75V15.5613ZM15.5833 8.48798H18.4167V14.1466H15.5833V8.48798ZM2.83333 2.82933V8.48798H0V2.82933C0 2.07894 0.298511 1.35929 0.829864 0.828691C1.36122 0.298089 2.08189 0 2.83333 0L8.5 0V2.82933H2.83333ZM31.1667 0C31.9181 0 32.6388 0.298089 33.1701 0.828691C33.7015 1.35929 34 2.07894 34 2.82933V8.48798H31.1667V2.82933H25.5V0H31.1667ZM2.83333 25.4639V31.1226H8.5V33.9519H2.83333C2.08189 33.9519 1.36122 33.6538 0.829864 33.1232C0.298511 32.5926 0 31.873 0 31.1226V25.4639H2.83333ZM31.1667 31.1226V25.4639H34V31.1226C34 31.873 33.7015 32.5926 33.1701 33.1232C32.6388 33.6538 31.9181 33.9519 31.1667 33.9519H25.5V31.1226H31.1667Z" fill="#323232"/>
</svg>
