<svg width="44" height="44" viewBox="0 0 44 44" fill="none" xmlns="http://www.w3.org/2000/svg">
<g filter="url(#filter0_d_244_2059)">
<rect x="6" y="3" width="32" height="32" rx="16" fill="#37BAF4" shape-rendering="crispEdges"/>
<path d="M23 28V26H25V28H23ZM21 26V21H23V26H21ZM29 23V19H31V23H29ZM27 19V17H29V19H27ZM15 21V19H17V21H15ZM13 19V17H15V19H13ZM22 12V10H24V12H22ZM14.5 14.5H17.5V11.5H14.5V14.5ZM13 16V10H19V16H13ZM14.5 26.5H17.5V23.5H14.5V26.5ZM13 28V22H19V28H13ZM26.5 14.5H29.5V11.5H26.5V14.5ZM25 16V10H31V16H25ZM27 28V25H25V23H29V26H31V28H27ZM23 21V19H27V21H23ZM19 21V19H17V17H23V19H21V21H19ZM20 16V12H22V14H24V16H20ZM15.25 13.75V12.25H16.75V13.75H15.25ZM15.25 25.75V24.25H16.75V25.75H15.25ZM27.25 13.75V12.25H28.75V13.75H27.25Z" fill="white"/>
<rect x="6.5" y="3.5" width="31" height="31" rx="15.5" stroke="white" shape-rendering="crispEdges"/>
</g>
<defs>
<filter id="filter0_d_244_2059" x="0" y="0" width="44" height="44" filterUnits="userSpaceOnUse" color-interpolation-filters="sRGB">
<feFlood flood-opacity="0" result="BackgroundImageFix"/>
<feColorMatrix in="SourceAlpha" type="matrix" values="0 0 0 0 0 0 0 0 0 0 0 0 0 0 0 0 0 0 127 0" result="hardAlpha"/>
<feOffset dy="3"/>
<feGaussianBlur stdDeviation="3"/>
<feComposite in2="hardAlpha" operator="out"/>
<feColorMatrix type="matrix" values="0 0 0 0 0.215625 0 0 0 0 0.729808 0 0 0 0 0.958333 0 0 0 0.28 0"/>
<feBlend mode="normal" in2="BackgroundImageFix" result="effect1_dropShadow_244_2059"/>
<feBlend mode="normal" in="SourceGraphic" in2="effect1_dropShadow_244_2059" result="shape"/>
</filter>
</defs>
</svg>
