<svg width="23" height="16" viewBox="0 0 23 16" fill="none" xmlns="http://www.w3.org/2000/svg">
<path d="M0 2.99268C0 2.32963 0.302901 1.69375 0.842068 1.22491C1.38124 0.756068 2.1125 0.492676 2.875 0.492676H20.125C20.8875 0.492676 21.6188 0.756068 22.1579 1.22491C22.6971 1.69375 23 2.32963 23 2.99268V12.9927C23 13.6557 22.6971 14.2916 22.1579 14.7604C21.6188 15.2293 20.8875 15.4927 20.125 15.4927H2.875C2.1125 15.4927 1.38124 15.2293 0.842068 14.7604C0.302901 14.2916 0 13.6557 0 12.9927V2.99268ZM2.875 1.74268C2.49375 1.74268 2.12812 1.87437 1.85853 2.10879C1.58895 2.34321 1.4375 2.66116 1.4375 2.99268V4.24268H21.5625V2.99268C21.5625 2.66116 21.411 2.34321 21.1415 2.10879C20.8719 1.87437 20.5062 1.74268 20.125 1.74268H2.875ZM21.5625 6.74268H1.4375V12.9927C1.4375 13.3242 1.58895 13.6421 1.85853 13.8766C2.12812 14.111 2.49375 14.2427 2.875 14.2427H20.125C20.5062 14.2427 20.8719 14.111 21.1415 13.8766C21.411 13.6421 21.5625 13.3242 21.5625 12.9927V6.74268Z" fill="white"/>
</svg>
