<svg width="48" height="48" viewBox="0 0 48 48" fill="none" xmlns="http://www.w3.org/2000/svg">
<g filter="url(#filter0_d_247_4715)">
<rect x="6" y="3" width="36" height="36" rx="18" fill="#323232" shape-rendering="crispEdges"/>
<path d="M15.8333 21.8861C15.8333 20.3021 15.8333 19.5101 16.1535 18.8139C16.4737 18.1177 17.075 17.6022 18.2777 16.5713L19.4444 15.5713C21.6182 13.708 22.7052 12.7764 23.9999 12.7764C25.2947 12.7764 26.3816 13.708 28.5555 15.5713L29.7221 16.5713C30.9248 17.6022 31.5262 18.1177 31.8464 18.8139C32.1666 19.5101 32.1666 20.3021 32.1666 21.8861V26.8333C32.1666 29.0331 32.1666 30.1331 31.4832 30.8165C30.7997 31.4999 29.6998 31.4999 27.4999 31.4999H20.4999C18.3 31.4999 17.2001 31.4999 16.5167 30.8165C15.8333 30.1331 15.8333 29.0331 15.8333 26.8333V21.8861Z" stroke="white" stroke-width="2"/>
<path d="M26.9166 31.5V25.5C26.9166 24.9477 26.4689 24.5 25.9166 24.5H22.0833C21.531 24.5 21.0833 24.9477 21.0833 25.5V31.5" stroke="white" stroke-width="2" stroke-linecap="round" stroke-linejoin="round"/>
<rect x="6.5" y="3.5" width="35" height="35" rx="17.5" stroke="white" shape-rendering="crispEdges"/>
</g>
<defs>
<filter id="filter0_d_247_4715" x="0" y="0" width="48" height="48" filterUnits="userSpaceOnUse" color-interpolation-filters="sRGB">
<feFlood flood-opacity="0" result="BackgroundImageFix"/>
<feColorMatrix in="SourceAlpha" type="matrix" values="0 0 0 0 0 0 0 0 0 0 0 0 0 0 0 0 0 0 127 0" result="hardAlpha"/>
<feOffset dy="3"/>
<feGaussianBlur stdDeviation="3"/>
<feComposite in2="hardAlpha" operator="out"/>
<feColorMatrix type="matrix" values="0 0 0 0 0.215625 0 0 0 0 0.729808 0 0 0 0 0.958333 0 0 0 0.28 0"/>
<feBlend mode="normal" in2="BackgroundImageFix" result="effect1_dropShadow_247_4715"/>
<feBlend mode="normal" in="SourceGraphic" in2="effect1_dropShadow_247_4715" result="shape"/>
</filter>
</defs>
</svg>
