<svg width="48" height="48" viewBox="0 0 48 48" fill="none" xmlns="http://www.w3.org/2000/svg">
<g filter="url(#filter0_d_244_2054)">
<rect x="6" y="3" width="36" height="36" rx="18" fill="#37BAF4" shape-rendering="crispEdges"/>
<path d="M15.8333 19.8861C15.8333 18.3021 15.8333 17.5101 16.1535 16.8139C16.4737 16.1177 17.075 15.6022 18.2777 14.5713L19.4444 13.5713C21.6182 11.708 22.7052 10.7764 23.9999 10.7764C25.2947 10.7764 26.3816 11.708 28.5555 13.5713L29.7221 14.5713C30.9248 15.6022 31.5262 16.1177 31.8464 16.8139C32.1666 17.5101 32.1666 18.3021 32.1666 19.8861V24.8333C32.1666 27.0331 32.1666 28.1331 31.4832 28.8165C30.7997 29.4999 29.6998 29.4999 27.4999 29.4999H20.4999C18.3 29.4999 17.2001 29.4999 16.5167 28.8165C15.8333 28.1331 15.8333 27.0331 15.8333 24.8333V19.8861Z" stroke="white" stroke-width="2"/>
<path d="M26.9166 29.5V23.5C26.9166 22.9477 26.4689 22.5 25.9166 22.5H22.0833C21.531 22.5 21.0833 22.9477 21.0833 23.5V29.5" stroke="white" stroke-width="2" stroke-linecap="round" stroke-linejoin="round"/>
<rect x="6.5" y="3.5" width="35" height="35" rx="17.5" stroke="white" shape-rendering="crispEdges"/>
</g>
<defs>
<filter id="filter0_d_244_2054" x="0" y="0" width="48" height="48" filterUnits="userSpaceOnUse" color-interpolation-filters="sRGB">
<feFlood flood-opacity="0" result="BackgroundImageFix"/>
<feColorMatrix in="SourceAlpha" type="matrix" values="0 0 0 0 0 0 0 0 0 0 0 0 0 0 0 0 0 0 127 0" result="hardAlpha"/>
<feOffset dy="3"/>
<feGaussianBlur stdDeviation="3"/>
<feComposite in2="hardAlpha" operator="out"/>
<feColorMatrix type="matrix" values="0 0 0 0 0.215625 0 0 0 0 0.729808 0 0 0 0 0.958333 0 0 0 0.28 0"/>
<feBlend mode="normal" in2="BackgroundImageFix" result="effect1_dropShadow_244_2054"/>
<feBlend mode="normal" in="SourceGraphic" in2="effect1_dropShadow_244_2054" result="shape"/>
</filter>
</defs>
</svg>
