<svg width="48" height="48" viewBox="0 0 48 48" fill="none" xmlns="http://www.w3.org/2000/svg">
<g filter="url(#filter0_d_244_2092)">
<rect x="6" y="3" width="36" height="36" rx="18" fill="#727272" shape-rendering="crispEdges"/>
<path d="M32.6708 22.1435C32.7175 21.7702 32.7525 21.3968 32.7525 21.0002C32.7525 20.6035 32.7175 20.2302 32.6708 19.8568L35.1325 17.9318C35.3542 17.7568 35.4125 17.4418 35.2725 17.1852L32.9392 13.1485C32.8342 12.9618 32.6358 12.8568 32.4258 12.8568C32.3558 12.8568 32.2858 12.8685 32.2275 12.8918L29.3225 14.0585C28.7158 13.5918 28.0625 13.2068 27.3508 12.9152L26.9075 9.8235C26.8725 9.5435 26.6275 9.3335 26.3358 9.3335H21.6692C21.3775 9.3335 21.1325 9.5435 21.0975 9.8235L20.6542 12.9152C19.9425 13.2068 19.2892 13.6035 18.6825 14.0585L15.7775 12.8918C15.7075 12.8685 15.6375 12.8568 15.5675 12.8568C15.3692 12.8568 15.1708 12.9618 15.0658 13.1485L12.7325 17.1852C12.5808 17.4418 12.6508 17.7568 12.8725 17.9318L15.3342 19.8568C15.2875 20.2302 15.2525 20.6152 15.2525 21.0002C15.2525 21.3852 15.2875 21.7702 15.3342 22.1435L12.8725 24.0685C12.6508 24.2435 12.5925 24.5585 12.7325 24.8152L15.0658 28.8518C15.1708 29.0385 15.3692 29.1435 15.5792 29.1435C15.6492 29.1435 15.7192 29.1318 15.7775 29.1085L18.6825 27.9418C19.2892 28.4085 19.9425 28.7935 20.6542 29.0852L21.0975 32.1768C21.1325 32.4568 21.3775 32.6668 21.6692 32.6668H26.3358C26.6275 32.6668 26.8725 32.4568 26.9075 32.1768L27.3508 29.0852C28.0625 28.7935 28.7158 28.3968 29.3225 27.9418L32.2275 29.1085C32.2975 29.1318 32.3675 29.1435 32.4375 29.1435C32.6358 29.1435 32.8342 29.0385 32.9392 28.8518L35.2725 24.8152C35.4125 24.5585 35.3542 24.2435 35.1325 24.0685L32.6708 22.1435ZM30.3608 20.1485C30.4075 20.5102 30.4192 20.7552 30.4192 21.0002C30.4192 21.2452 30.3958 21.5018 30.3608 21.8518L30.1975 23.1702L31.2358 23.9868L32.4958 24.9668L31.6792 26.3785L30.1975 25.7835L28.9842 25.2935L27.9342 26.0868C27.4325 26.4602 26.9542 26.7402 26.4758 26.9385L25.2392 27.4402L25.0525 28.7585L24.8192 30.3335H23.1858L22.7775 27.4402L21.5408 26.9385C21.0392 26.7285 20.5725 26.4602 20.1058 26.1102L19.0442 25.2935L17.8075 25.7952L16.3258 26.3902L15.5092 24.9785L16.7692 23.9985L17.8075 23.1818L17.6442 21.8635C17.6092 21.5018 17.5858 21.2335 17.5858 21.0002C17.5858 20.7668 17.6092 20.4985 17.6442 20.1485L17.8075 18.8302L16.7692 18.0135L15.5092 17.0335L16.3258 15.6218L17.8075 16.2168L19.0208 16.7068L20.0708 15.9135C20.5725 15.5402 21.0508 15.2602 21.5292 15.0618L22.7658 14.5602L22.9525 13.2418L23.1858 11.6668H24.8075L25.2158 14.5602L26.4525 15.0618C26.9542 15.2718 27.4208 15.5402 27.8875 15.8902L28.9492 16.7068L30.1858 16.2052L31.6675 15.6102L32.4842 17.0218L31.2358 18.0135L30.1975 18.8302L30.3608 20.1485ZM24.0025 16.3335C21.4242 16.3335 19.3358 18.4218 19.3358 21.0002C19.3358 23.5785 21.4242 25.6668 24.0025 25.6668C26.5808 25.6668 28.6692 23.5785 28.6692 21.0002C28.6692 18.4218 26.5808 16.3335 24.0025 16.3335ZM24.0025 23.3335C22.7192 23.3335 21.6692 22.2835 21.6692 21.0002C21.6692 19.7168 22.7192 18.6668 24.0025 18.6668C25.2858 18.6668 26.3358 19.7168 26.3358 21.0002C26.3358 22.2835 25.2858 23.3335 24.0025 23.3335Z" fill="white"/>
<rect x="6.5" y="3.5" width="35" height="35" rx="17.5" stroke="white" shape-rendering="crispEdges"/>
</g>
<defs>
<filter id="filter0_d_244_2092" x="0" y="0" width="48" height="48" filterUnits="userSpaceOnUse" color-interpolation-filters="sRGB">
<feFlood flood-opacity="0" result="BackgroundImageFix"/>
<feColorMatrix in="SourceAlpha" type="matrix" values="0 0 0 0 0 0 0 0 0 0 0 0 0 0 0 0 0 0 127 0" result="hardAlpha"/>
<feOffset dy="3"/>
<feGaussianBlur stdDeviation="3"/>
<feComposite in2="hardAlpha" operator="out"/>
<feColorMatrix type="matrix" values="0 0 0 0 0.447059 0 0 0 0 0.447059 0 0 0 0 0.447059 0 0 0 0.28 0"/>
<feBlend mode="normal" in2="BackgroundImageFix" result="effect1_dropShadow_244_2092"/>
<feBlend mode="normal" in="SourceGraphic" in2="effect1_dropShadow_244_2092" result="shape"/>
</filter>
</defs>
</svg>
