<svg width="22" height="19" viewBox="0 0 22 19" fill="none" xmlns="http://www.w3.org/2000/svg">
<path d="M18.25 4.74902H3.25C2.00736 4.74902 1 5.75638 1 6.99902V15.999C1 17.2417 2.00736 18.249 3.25 18.249H18.25C19.4926 18.249 20.5 17.2417 20.5 15.999V6.99902C20.5 5.75638 19.4926 4.74902 18.25 4.74902Z" stroke="#444444" stroke-width="1.5" stroke-linejoin="round"/>
<path d="M18.0325 4.74925V3.343C18.0324 2.99809 17.9562 2.65746 17.8092 2.34542C17.6623 2.03337 17.4484 1.75759 17.1826 1.53776C16.9168 1.31793 16.6058 1.15946 16.2717 1.07367C15.9377 0.987874 15.5888 0.976867 15.25 1.04143L2.905 3.14846C2.3689 3.25063 1.88526 3.53667 1.53749 3.95726C1.18972 4.37786 0.99963 4.90662 1 5.45237V7.74925" stroke="#444444" stroke-width="1.5" stroke-linejoin="round"/>
<path d="M16 12.999C15.7033 12.999 15.4133 12.9111 15.1666 12.7462C14.92 12.5814 14.7277 12.3471 14.6142 12.0731C14.5006 11.799 14.4709 11.4974 14.5288 11.2064C14.5867 10.9154 14.7296 10.6481 14.9393 10.4384C15.1491 10.2286 15.4164 10.0857 15.7074 10.0278C15.9983 9.96997 16.2999 9.99967 16.574 10.1132C16.8481 10.2267 17.0824 10.419 17.2472 10.6657C17.412 10.9123 17.5 11.2024 17.5 11.499C17.5 11.8968 17.342 12.2784 17.0607 12.5597C16.7794 12.841 16.3978 12.999 16 12.999Z" fill="#444444"/>
</svg>
